<svg xmlns="http://www.w3.org/2000/svg" xmlns:xlink="http://www.w3.org/1999/xlink" aria-hidden="true" role="img" class="iconify iconify--logos" width="35.93" height="32" preserveAspectRatio="xMidYMid meet" viewBox="0 0 256 228"><path fill="#00D8FF" d="M210.483 73.824a171.49 171.49 0 0 0-8.24-2.597c.465-1.9.893-3.777 1.273-5.621c6.238-30.281 2.16-54.676-11.769-62.708c-13.355-7.7-35.196.329-57.254 19.526a171.23 171.23 0 0 0-6.375 5.848a155.866 155.866 0 0 0-4.241-3.917C100.759 3.829 77.587-4.822 63.673 3.233C50.33 10.957 46.379 33.89 51.995 62.588a170.974 170.974 0 0 0 1.892 8.48c-3.28.932-6.445 1.924-9.474 2.98C17.309 83.498 0 98.307 0 113.668c0 15.865 18.582 31.778 46.812 41.427a145.52 145.52 0 0 0 6.921 2.165a167.467 167.467 0 0 0-2.01 9.138c-5.354 28.2-1.173 50.591 12.134 58.266c13.744 7.926 36.812-.22 59.273-19.855a145.567 145.567 0 0 0 5.342-4.923a168.064 168.064 0 0 0 6.92 6.314c21.758 18.722 43.246 26.282 56.54 18.586c13.731-7.949 18.194-32.003 12.4-61.268a145.016 145.016 0 0 0-1.535-6.842c1.62-.48 3.21-.974 4.76-1.488c29.348-9.723 48.443-25.443 48.443-41.52c0-15.417-17.868-30.326-45.517-39.844Zm-6.365 70.984c-1.4.463-2.836.887-4.295 1.274c-1.077-3.813-2.355-7.758-3.816-11.786c1.711-3.68 3.317-7.29 4.813-10.804c1.555.317 3.085.652 4.582 1.002c23.987 6.624 39.08 17.275 39.08 26.128c0 9.523-16.58 21.168-41.564 27.186Zm-10.049-44.761c1.754 3.98 3.316 8.005 4.67 12.04c-4.65 1.055-9.564 1.97-14.682 2.732c-2.813-5.123-5.98-10.13-9.444-14.96c5.609-.902 11.06-2.038 16.456-3.812ZM128.002 37.26c4.907 2.09 9.769 4.407 14.532 6.928c-4.62 4.302-9.016 8.884-13.152 13.725c-4.214-4.918-8.61-9.555-13.152-13.89a171.33 171.33 0 0 1 11.772-6.763ZM91.665 46.527c5.038 1.803 10.159 3.4 15.316 4.772a163.078 163.078 0 0 0-9.474 14.875a167.133 167.133 0 0 0-16.516-3.467c1.401-5.653 2.942-11.18 4.674-16.18Zm-22.559 41.405a323.097 323.097 0 0 1 7.936-1.168c4.31 6.406 8.978 12.57 13.972 18.44c-4.928 5.889-9.774 12.084-14.395 18.496a323.43 323.43 0 0 1-6.67-1.375c-2.608-9.886-4.08-20.375-4.08-31.317c0-10.973 1.455-21.496 4.235-31.076Zm-8.893 63.26c2.936.775 5.946 1.476 9.026 2.095a167.562 167.562 0 0 0 6.395 15.317a168.307 168.307 0 0 0-15.315 6.395a323.136 323.136 0 0 1-6.106-23.728Zm30.196 27.937c4.184-2.6 8.438-5.516 12.721-8.713a323.43 323.43 0 0 1 6.857 13.47a323.078 323.078 0 0 1-6.857 13.471c-4.283-3.197-8.537-6.114-12.721-8.713a170.098 170.098 0 0 0 6.857-13.515Zm42.701 42.701c-2.936-.775-5.946-1.476-9.026-2.095a167.562 167.562 0 0 0-6.395-15.317a168.307 168.307 0 0 0 15.315-6.395a323.136 323.136 0 0 1 6.106 23.728Zm30.196-27.937a323.097 323.097 0 0 1-7.936 1.168c-4.31-6.406-8.978-12.57-13.972-18.44c4.928-5.889 9.774-12.084 14.395-18.496a323.43 323.43 0 0 1 6.67 1.375c2.608 9.886 4.08 20.375 4.08 31.317c0 10.973-1.455 21.496-4.235 31.076Zm22.559-41.405a323.136 323.136 0 0 1-6.106-23.728c2.936-.775 5.946-1.476 9.026-2.095a167.562 167.562 0 0 0 6.395-15.317a168.307 168.307 0 0 0-15.315-6.395ZM128.002 190.08c-4.907-2.09-9.769-4.407-14.532-6.928c4.62-4.302 9.016-8.884 13.152-13.725c4.214 4.918 8.61 9.555 13.152 13.89a171.33 171.33 0 0 1-11.772 6.763Zm36.337-9.267c-5.038-1.803-10.159-3.4-15.316-4.772a163.078 163.078 0 0 0 9.474-14.875a167.133 167.133 0 0 0 16.516 3.467c-1.401 5.653-2.942 11.18-4.674 16.18Zm6.065-64.849l-.009.038c-.7-2.842-1.488-5.67-2.357-8.474a323.43 323.43 0 0 0 7.832-13.927a323.078 323.078 0 0 0-7.832-13.927c.87-2.804 1.657-5.632 2.357-8.474l.009.038a323.136 323.136 0 0 1 3.871 15.526c1.401 5.653 2.942 11.18 4.674 16.18a323.097 323.097 0 0 1-4.674 16.18a323.136 323.136 0 0 1-3.871 15.526ZM128.002 90.808c12.625 0 22.86 10.235 22.86 22.86s-10.235 22.86-22.86 22.86s-22.86-10.235-22.86-22.86s10.235-22.86 22.86-22.86Z"></path></svg>
